<svg width="37" height="32" viewBox="0 0 37 32" fill="none" xmlns="http://www.w3.org/2000/svg">
<path d="M17.7139 9.96871C17.0553 10.173 16.4221 10.4947 15.8648 10.9084C15.2822 11.3425 14.7857 11.8583 14.3703 12.4558C13.9751 13.0226 13.6914 13.6763 13.5242 14.3504C13.4381 14.6926 13.3976 15.0501 13.3773 15.4076C13.352 15.8059 13.3925 16.1991 13.4533 16.5873C13.6408 17.8385 14.3095 19.0182 15.267 19.8251C17.1364 21.4082 19.8265 21.684 22.1214 21.0558C23.2715 20.7443 24.3607 20.1621 25.227 19.3297C26.2706 18.3338 26.9292 16.8988 26.9596 15.4484C26.99 14.0287 26.301 12.6805 25.2827 11.7255C24.7609 11.2352 24.1428 10.8471 23.4842 10.5611C23.1296 10.413 22.7699 10.2853 22.39 10.1883C22.0353 10.1015 21.6706 10.0504 21.3058 10.0147C21.1842 9.96871 21.0626 9.93296 20.936 9.89721C20.5662 9.78996 20.171 9.7389 19.786 9.70825C19.6694 9.69804 19.5529 9.69293 19.4313 9.69293C18.8589 9.69804 18.2661 9.80018 17.7139 9.96871ZM20.0342 11.0412C20.4192 11.1024 20.7941 11.2046 21.1589 11.3527C21.2146 11.3782 21.2703 11.4038 21.3261 11.4293C21.4882 11.5059 21.6452 11.5416 21.8225 11.4957C21.8732 11.4804 21.9239 11.4599 21.9695 11.4344C22.3038 11.511 22.6281 11.6131 22.9422 11.7408C23.3576 11.9298 23.7477 12.1545 24.1124 12.4302C24.4012 12.6652 24.6596 12.9307 24.8977 13.2167C25.0953 13.4874 25.2624 13.7734 25.3992 14.0747C25.5056 14.3556 25.5867 14.6364 25.6373 14.9326C25.6728 15.2442 25.6728 15.5506 25.6424 15.8621C25.5867 16.2094 25.4955 16.5413 25.3638 16.8682C25.2016 17.2359 24.999 17.5882 24.7609 17.9151C24.5127 18.2215 24.229 18.4973 23.925 18.7475C23.5197 19.0488 23.084 19.299 22.623 19.5033C22.0353 19.7433 21.4274 19.9017 20.8043 19.9936C20.1659 20.0702 19.5276 20.0702 18.8893 19.9987C18.3523 19.917 17.8254 19.7791 17.3188 19.5697C16.9489 19.4012 16.5994 19.202 16.2701 18.962C15.9914 18.7373 15.7381 18.4819 15.5152 18.2062C15.3126 17.9253 15.1403 17.6291 15.0035 17.3125C14.8668 16.955 14.7705 16.5873 14.7097 16.2094C14.6692 15.8366 14.6692 15.4689 14.7046 15.1012C14.7654 14.7181 14.8668 14.3504 15.0086 13.993C15.1707 13.6304 15.3683 13.2933 15.6014 12.9716C15.8699 12.6345 16.1738 12.3281 16.5082 12.0574C16.8729 11.7868 17.258 11.557 17.6734 11.3731C18.0584 11.2199 18.4637 11.1127 18.8741 11.0463C19.254 11.0003 19.6441 11.0003 20.0342 11.0412ZM22.8307 11.6897C22.8611 11.7051 22.8915 11.7153 22.9219 11.7306C22.8966 11.7204 22.8611 11.7051 22.8307 11.6897ZM25.6424 14.9735C25.6475 14.9939 25.6475 15.0195 25.6525 15.0399C25.6475 15.0195 25.6424 14.999 25.6424 14.9735ZM15.0086 17.3482C15.0187 17.3737 15.0289 17.4044 15.0441 17.4299C15.0339 17.4044 15.0187 17.3788 15.0086 17.3482ZM24.8369 17.818C24.8166 17.8436 24.7964 17.8691 24.7761 17.8946C24.7964 17.8742 24.8166 17.8436 24.8369 17.818ZM15.4544 18.1398C15.4646 18.1551 15.4798 18.1704 15.4899 18.1857C15.4798 18.1704 15.4696 18.1551 15.4544 18.1398ZM23.9908 18.7015C23.9655 18.7169 23.9453 18.7373 23.9199 18.7526C23.9453 18.7322 23.9706 18.7169 23.9908 18.7015Z" fill="#E35205"/>
<path d="M28.0438 1.21539C26.7418 3.16623 25.2524 5.00472 24.229 7.1292C24.1531 7.29262 24.1176 7.45093 24.1682 7.62968C24.2088 7.7931 24.3202 7.93609 24.4621 8.0178C24.7458 8.18633 25.1967 8.10462 25.3487 7.78288C26.3669 5.65841 27.8564 3.81481 29.1584 1.86907C29.356 1.57287 29.2141 1.149 28.9253 0.975362C28.824 0.914079 28.7176 0.888545 28.6112 0.888545C28.3934 0.893652 28.1756 1.01622 28.0438 1.21539Z" fill="#E35205"/>
<path d="M34.9692 8.74306C33.5254 9.41206 32.0764 10.0709 30.6123 10.6939C30.663 10.6684 30.7137 10.653 30.7643 10.6275C29.9943 10.9544 29.2192 11.271 28.4339 11.5774C28.2718 11.6387 28.1401 11.7153 28.0489 11.8736C27.9628 12.0217 27.9374 12.2055 27.983 12.3792C28.0286 12.5426 28.135 12.6805 28.2819 12.7673C28.4187 12.8439 28.6264 12.8899 28.7784 12.8286C31.0936 11.9247 33.3632 10.9084 35.6177 9.86658C35.7595 9.80019 35.871 9.62655 35.9166 9.47845C35.9622 9.30993 35.9368 9.12608 35.8507 8.97287C35.7646 8.82987 35.6278 8.71752 35.4657 8.67667C35.41 8.66135 35.3542 8.65113 35.3036 8.65113C35.187 8.65624 35.0807 8.69199 34.9692 8.74306Z" fill="#E35205"/>
<path d="M27.2281 18.1602C27.1369 18.5075 27.3447 18.8599 27.679 18.962C29.3458 19.4625 30.9973 20.0243 32.6084 20.7035C32.5577 20.6831 32.507 20.6626 32.4564 20.6422C33.6165 21.1376 34.7564 21.6891 35.8253 22.3632C36.1242 22.5522 36.5346 22.4296 36.7119 22.1283C36.8943 21.8168 36.7778 21.4236 36.4789 21.2346C35.1718 20.4124 33.7634 19.7638 32.3297 19.1867C30.9213 18.6199 29.4775 18.1398 28.0235 17.7006C27.9678 17.6853 27.9121 17.6751 27.8563 17.6751C27.5726 17.6802 27.3041 17.8794 27.2281 18.1602Z" fill="#E35205"/>
<path d="M21.1285 22.3173C20.8245 22.496 20.7232 22.8995 20.8954 23.211C21.3463 23.9975 21.7212 24.8248 22.0758 25.6623C22.0708 25.6572 22.0708 25.647 22.0657 25.6419C22.5166 26.7194 22.9422 27.8072 23.4336 28.8695C23.9148 29.9164 24.4873 30.9071 25.1966 31.811C25.2979 31.9387 25.5005 32 25.6525 32C25.8248 32 25.9869 31.9336 26.1085 31.811C26.2301 31.6885 26.2959 31.5251 26.2959 31.3514C26.2959 31.1727 26.225 31.0501 26.1287 30.9173C26.1338 30.9224 26.1389 30.9327 26.1439 30.9378C25.2371 29.7581 24.6038 28.4047 24.0314 27.0361C24.0364 27.0514 24.0466 27.0718 24.0516 27.0871C23.4133 25.5551 22.8307 23.9975 22.0049 22.5522C21.8884 22.3479 21.6655 22.2305 21.4426 22.2305C21.3413 22.2305 21.2298 22.256 21.1285 22.3173Z" fill="#E35205"/>
<path d="M11.9791 22.4194C10.4846 24.6767 9.30421 27.1229 7.77424 29.3597C7.57666 29.6508 7.71852 30.0849 8.00729 30.2534C8.1542 30.3403 8.33658 30.3658 8.50377 30.3147C8.67601 30.2688 8.79253 30.1615 8.88879 30.0185C10.4137 27.7817 11.5992 25.3304 13.0937 23.0731C13.2862 22.7769 13.1494 22.353 12.8606 22.1794C12.7593 22.1181 12.6479 22.0926 12.5415 22.0926C12.3287 22.0926 12.1159 22.2152 11.9791 22.4194Z" fill="#E35205"/>
<path d="M8.76721 15.6221C5.92512 17.0163 3.0273 18.3083 0.316921 19.963C0.0180201 20.1468 -0.0934346 20.5452 0.0838797 20.8567C0.261194 21.158 0.666483 21.2754 0.970451 21.0916C3.68083 19.437 6.57865 18.15 9.42074 16.7507C9.73484 16.5975 9.82096 16.1481 9.65378 15.857C9.56766 15.714 9.43087 15.6017 9.26876 15.5557C9.21303 15.5404 9.16237 15.5353 9.10664 15.5353C8.99012 15.5302 8.87867 15.5659 8.76721 15.6221Z" fill="#E35205"/>
<path d="M2.15084 7.86973C1.98873 7.91058 1.84687 8.02294 1.76582 8.17104C1.67969 8.31914 1.65436 8.50299 1.69996 8.67152C1.74049 8.81962 1.85194 8.99836 1.99379 9.05964C4.6991 10.2547 7.31828 11.6386 10.0439 12.7826C10.1958 12.8439 10.4086 12.7928 10.5454 12.7162C10.6873 12.6345 10.7987 12.4915 10.8392 12.3281C10.8848 12.1595 10.8595 11.9757 10.7734 11.8276C10.6822 11.6693 10.5505 11.5978 10.3884 11.5263C10.3428 11.5059 10.2972 11.4854 10.2465 11.4701C10.2668 11.4803 10.2921 11.4905 10.3174 11.5007C10.282 11.4854 10.2516 11.4701 10.2161 11.4599C10.1958 11.4497 10.1806 11.4446 10.1604 11.4344C10.1705 11.4395 10.1857 11.4446 10.1958 11.4497C7.64758 10.3517 5.18545 9.06475 2.65239 7.94123C2.53587 7.89016 2.42948 7.85441 2.31296 7.85441C2.25723 7.84419 2.20657 7.85441 2.15084 7.86973ZM10.2161 11.4548C10.2262 11.4599 10.2364 11.465 10.2465 11.4701C10.2313 11.465 10.211 11.4548 10.1958 11.4497C10.2009 11.4446 10.211 11.4497 10.2161 11.4548Z" fill="#E35205"/>
<path d="M7.49567 2.84971C7.25757 3.08973 7.23224 3.53403 7.49567 3.77406C9.61838 5.67383 11.6448 7.67574 13.8993 9.42231C14.0259 9.52445 14.2488 9.52955 14.3957 9.4887C14.5578 9.44274 14.6997 9.33549 14.7808 9.18739C14.8669 9.03929 14.8922 8.85544 14.8466 8.68691C14.801 8.50817 14.6896 8.40603 14.5477 8.29879C14.5629 8.309 14.573 8.31921 14.5882 8.32943C12.4149 6.63393 10.4594 4.6933 8.41264 2.85481C8.27586 2.73225 8.10868 2.66586 7.94149 2.66586C7.77938 2.66075 7.62233 2.72203 7.49567 2.84971Z" fill="#E35205"/>
<path d="M15.2721 0.0255346C15.11 0.0714969 14.9732 0.178742 14.8871 0.326843C14.8061 0.46473 14.7655 0.674113 14.8213 0.827321C15.3127 2.11937 15.718 3.44717 16.2094 4.73922C16.716 6.07212 17.2935 7.40503 18.2004 8.51834C18.3017 8.64601 18.4993 8.70729 18.6563 8.70729C18.8286 8.70729 18.9957 8.6409 19.1123 8.51834C19.2338 8.39577 19.2997 8.23235 19.2997 8.05872C19.2997 7.87487 19.2237 7.73698 19.1123 7.59909C19.092 7.57356 19.0768 7.55313 19.0565 7.5276C18.5246 6.81774 18.1294 6.01084 17.7799 5.19884C17.7799 5.20395 17.7849 5.21416 17.7849 5.21927C17.7799 5.20395 17.7748 5.18863 17.7647 5.17331C17.7495 5.13756 17.7343 5.0967 17.7191 5.06096C17.7241 5.07628 17.7343 5.0916 17.7393 5.11202C17.1162 3.59527 16.6501 2.01213 16.0675 0.48005C16.0067 0.316629 15.9257 0.183849 15.7686 0.0919245C15.6724 0.0306415 15.5609 0 15.4444 0C15.3887 0 15.3279 0.00510692 15.2721 0.0255346ZM17.7697 5.17331C17.7748 5.18352 17.7748 5.18863 17.7799 5.19884C17.7697 5.1682 17.7545 5.13756 17.7444 5.11202C17.7495 5.13245 17.7596 5.15288 17.7697 5.17331Z" fill="#E35205"/>
<path d="M18.9147 18.0427C18.5854 18.4257 18.2511 18.8088 17.9167 19.1867C17.861 19.2531 17.861 19.3552 17.9268 19.4165C17.9876 19.4727 18.094 19.4727 18.1548 19.4063C18.4892 19.0284 18.8185 18.6453 19.1528 18.2623C19.2085 18.1959 19.2085 18.0938 19.1478 18.0325C19.1174 18.0019 19.0768 17.9917 19.0363 17.9917C18.9907 17.9866 18.9451 18.007 18.9147 18.0427Z" fill="#E35205"/>
<path d="M19.943 18.1245C19.6948 18.5228 19.4465 18.9263 19.2034 19.3297C19.1578 19.4063 19.1983 19.5085 19.2692 19.5493C19.3503 19.5953 19.4415 19.5595 19.4871 19.4829C19.7302 19.0795 19.9785 18.6812 20.2267 18.2777C20.2723 18.2011 20.2318 18.099 20.1609 18.0581C20.1355 18.0428 20.1102 18.0377 20.0849 18.0377C20.0291 18.0377 19.9734 18.0734 19.943 18.1245Z" fill="#E35205"/>
<path d="M21.0322 17.91C20.8549 18.2573 20.6877 18.6045 20.5307 18.962C20.4952 19.0437 20.5155 19.1356 20.5965 19.1816C20.6675 19.2174 20.7789 19.1918 20.8144 19.1152C20.9714 18.7577 21.1386 18.4105 21.3159 18.0632C21.3565 17.9866 21.3261 17.8844 21.2501 17.8436C21.2247 17.8334 21.1994 17.8232 21.1741 17.8232C21.1184 17.8232 21.0576 17.8589 21.0322 17.91Z" fill="#E35205"/>
<path d="M22.0456 17.7261C22.0101 17.7363 21.9645 17.767 21.9544 17.8027C21.8176 18.1653 21.6757 18.5279 21.539 18.8956C21.5238 18.9365 21.5136 18.9773 21.5288 19.0233C21.544 19.0641 21.5694 19.0948 21.6048 19.1152C21.6454 19.1356 21.6859 19.1356 21.7264 19.1254C21.7619 19.1152 21.8075 19.0846 21.8227 19.0488C21.9595 18.6862 22.0962 18.3185 22.2381 17.9559C22.2533 17.9151 22.2634 17.8742 22.2482 17.8283C22.2381 17.7874 22.2077 17.7568 22.1722 17.7363C22.152 17.7261 22.1266 17.7159 22.1013 17.7159C22.076 17.721 22.0608 17.721 22.0456 17.7261Z" fill="#E35205"/>
<path d="M22.9119 17.3533C22.7953 17.7976 22.6839 18.2368 22.5674 18.6811C22.5471 18.7679 22.6028 18.8547 22.689 18.8752C22.7751 18.8956 22.8612 18.8394 22.8815 18.7526C22.9929 18.3083 23.1094 17.8691 23.226 17.4248C23.2513 17.338 23.1905 17.2512 23.1044 17.2307C23.0943 17.2256 23.0791 17.2256 23.0689 17.2256C22.9929 17.2307 22.9271 17.2818 22.9119 17.3533Z" fill="#E35205"/>
<path d="M24.006 16.5005C23.9655 16.5005 23.925 16.5209 23.8946 16.5516C23.8642 16.5822 23.8541 16.6231 23.8541 16.669C23.8389 16.9244 23.8237 17.1848 23.8135 17.4402C23.8085 17.527 23.8997 17.5985 23.9807 17.5934C24.0212 17.5934 24.0618 17.573 24.0922 17.5423C24.1226 17.5117 24.1327 17.4708 24.1327 17.4249C24.1479 17.1695 24.158 16.9091 24.1732 16.6537C24.1732 16.5669 24.0922 16.4954 24.0111 16.4954C24.0111 16.5005 24.006 16.5005 24.006 16.5005Z" fill="#E35205"/>
<path d="M24.2188 15.4842C24.1378 15.5098 24.082 15.6068 24.1124 15.6885C24.2188 15.9592 24.3252 16.2247 24.4367 16.4954C24.4671 16.5771 24.5481 16.6282 24.6393 16.6026C24.7204 16.5771 24.7761 16.4801 24.7457 16.3984C24.6393 16.1277 24.5329 15.8621 24.4215 15.5915C24.3961 15.5251 24.3354 15.474 24.2695 15.474C24.2543 15.4791 24.2391 15.4791 24.2188 15.4842Z" fill="#E35205"/>
<path d="M24.4266 14.3096C24.3557 14.3556 24.3253 14.4628 24.3759 14.5343C24.5127 14.7284 24.6495 14.9224 24.7913 15.1165C24.842 15.188 24.9383 15.2135 25.0143 15.1624C25.0852 15.1165 25.1156 15.0092 25.0649 14.9377C24.9281 14.7437 24.7913 14.5496 24.6495 14.3556C24.6191 14.3096 24.5634 14.2789 24.5127 14.2789C24.4823 14.2841 24.4519 14.2943 24.4266 14.3096Z" fill="#E35205"/>
<path d="M23.5552 13.0839C23.4995 13.1452 23.4995 13.2575 23.5653 13.3137C23.7224 13.4465 23.8794 13.5844 24.0314 13.7222C24.0973 13.7784 24.1986 13.7784 24.2594 13.7171C24.3151 13.6507 24.3151 13.5435 24.2492 13.4873C24.0922 13.3494 23.9402 13.2167 23.7781 13.0788C23.7477 13.0481 23.7072 13.0379 23.6666 13.0379C23.6312 13.0328 23.5906 13.0481 23.5552 13.0839Z" fill="#E35205"/>
</svg>
